PathFileType	4	(X/Y/Z)	 s10c0301.trc
DataRate	CameraRate	NumFrames	NumMarkers	Units	OrigDataRate	OrigDataStartFrame	OrigNumFrames
200	200	5	50	mm	200	251	2000
Frame#	Time	racr			lacr			c7			jug			rlel			rdr			llel			ldr			s2			lic			ric			lasi			rasi			rpsi			lpsi			rgt			lgt			rth1			rth2			rth3			rth4			rlfc			rmfc			rsh1			rsh2			rsh3			rsh4			rlmal			rmmal			rcal			rtoe			rmt5			lth1			lth2			lth4			lth3			llfc			lmfc			llmal			lmmal			lcal			lmt5			lsh1			lsh2			lsh3			lsh4			ltoe			SBIKE			LBIKE			RBIKE			
		X1	Y1	Z1	X2	Y2	Z2	X3	Y3	Z3	X4	Y4	Z4	X5	Y5	Z5	X6	Y6	Z6	X7	Y7	Z7	X8	Y8	Z8	X9	Y9	Z9	X10	Y10	Z10	X11	Y11	Z11	X12	Y12	Z12	X13	Y13	Z13	X14	Y14	Z14	X15	Y15	Z15	X16	Y16	Z16	X17	Y17	Z17	X18	Y18	Z18	X19	Y19	Z19	X20	Y20	Z20	X21	Y21	Z21	X22	Y22	Z22	X23	Y23	Z23	X24	Y24	Z24	X25	Y25	Z25	X26	Y26	Z26	X27	Y27	Z27	X28	Y28	Z28	X29	Y29	Z29	X30	Y30	Z30	X31	Y31	Z31	X32	Y32	Z32	X33	Y33	Z33	X34	Y34	Z34	X35	Y35	Z35	X36	Y36	Z36	X37	Y37	Z37	X38	Y38	Z38	X39	Y39	Z39	X40	Y40	Z40	X41	Y41	Z41	X42	Y42	Z42	X43	Y43	Z43	X44	Y44	Z44	X45	Y45	Z45	X46	Y46	Z46	X47	Y47	Z47	X48	Y48	Z48	X49	Y49	Z49	X50	Y50	Z50	
251	1.2550	466.884257	1249.278888	61.716610	547.215755	1293.476774	-248.747925	488.813554	1320.929136	-105.017772	480.702509	1178.802318	-113.553932	431.638202	976.845156	41.889069	634.751995	895.312209	-3.816231	538.940648	1061.043218	-413.627182	666.457911	884.346639	-378.813450	-35.264962	1150.106815	-191.311538	136.470253	1164.541819	-339.280956	148.211866	1137.876093	-54.366144	140.909793	1079.386493	-319.169685	138.008850	1044.972211	-67.604785	14.588570	1195.914727	-132.942825	20.381807	1216.362528	-243.281226	37.574880	1034.476747	-14.695721	19.475809	1051.358374	-396.395290	116.042045	909.620296	-1.077070	185.932250	857.314868	-20.849860	217.456099	778.880907	-33.812032	212.544478	881.988673	-29.002308	288.813401	697.287777	-56.910549	268.311849	687.693210	-169.926696	250.512699	588.649188	-22.502745	262.745241	501.654105	-36.418293	231.587214	420.886820	-37.457675	289.264217	501.704370	-63.710721	210.595092	322.499416	-51.325662	229.971169	335.213587	-133.682384	158.905465	298.839961	-98.738839	400.024389	270.711506	-78.730071	313.332021	248.816565	-21.199878	111.785100	957.547226	-415.718073	189.780556	921.891470	-402.188148	210.233231	948.381607	-387.611489	242.328632	850.337805	-404.000637	309.990990	765.058041	-394.303582	307.294937	746.130987	-272.949921	4.377784	529.778526	-383.321976	18.989541	524.231505	-302.190605	-56.631728	538.779968	-335.144096	42.681705	389.466318	-394.781798	204.885759	696.195752	-424.310030	159.523171	623.340950	-404.765498	79.552869	583.200602	-398.762884	180.439019	606.363777	-377.703351	120.956574	354.286973	-338.069467	-204.334046	834.039382	-223.627211	-78.281409	81.743810	-423.657335	-102.673301	80.406447	-24.369771	
252	1.2600	468.956537	1248.834373	62.425672	548.751461	1293.622054	-248.440590	490.567451	1321.177152	-104.335828	482.391329	1179.004209	-113.163206	432.068668	976.580196	42.058995	635.468105	895.279215	-5.188074	539.983991	1061.370526	-413.379962	666.627197	884.437965	-378.798529	-33.076868	1149.891035	-191.258094	138.361442	1165.104565	-339.167082	149.910059	1138.002580	-53.931658	143.070104	1079.780370	-319.087175	139.951210	1044.761048	-67.537571	16.378657	1195.884266	-132.584886	22.216216	1216.506829	-242.900884	39.440521	1034.213230	-14.729606	21.653384	1051.928149	-396.409783	117.112810	909.158017	-1.031037	186.753104	856.162087	-20.678317	217.639203	777.601807	-33.562733	213.496107	880.644232	-28.736814	288.330917	695.594228	-56.456153	268.152438	685.985669	-169.537769	249.972834	586.899400	-22.189071	262.159635	499.955264	-36.191011	231.063794	419.138605	-37.330251	288.750749	500.136744	-63.359146	210.281055	320.917399	-51.276375	229.363792	333.441343	-133.580142	158.460252	297.874820	-98.696709	399.340580	267.458851	-78.822494	312.373151	246.277640	-21.352261	114.080599	958.192359	-415.912945	192.121154	922.690505	-402.421525	212.544934	949.283155	-387.839458	244.828864	851.214405	-404.090756	312.752023	766.078849	-394.434945	310.452157	747.215784	-272.866265	6.158341	532.339258	-383.321845	20.731777	526.694738	-302.156920	-54.914367	541.398294	-334.908909	44.015700	391.933998	-394.677004	207.668418	697.613334	-424.413478	161.626048	624.926288	-404.387740	81.655206	585.372328	-398.831187	182.712812	607.960029	-377.755667	122.129097	356.314816	-337.905749	-204.281708	834.121286	-223.827730	-78.284387	81.747486	-423.649605	-102.665153	80.401189	-24.380735	
253	1.2650	471.153382	1248.385827	63.088502	550.242026	1293.759453	-248.240942	492.431672	1321.753002	-103.824814	484.029047	1179.230148	-112.892362	432.477915	976.252092	42.299281	635.659168	895.016868	-5.439127	540.870903	1061.664650	-413.188978	666.813268	884.512241	-378.767628	-31.410131	1150.047750	-190.938136	140.381683	1165.613696	-339.089364	151.658068	1138.020637	-53.625392	145.263423	1080.228970	-319.067631	141.834890	1044.580300	-67.370965	18.135142	1195.748989	-132.257178	24.066096	1216.631401	-242.492113	41.204733	1033.901357	-14.818324	23.905295	1052.511634	-396.429056	118.178684	908.605141	-0.943985	187.357499	855.224264	-20.490096	217.722985	776.305406	-33.269262	214.428104	879.442460	-28.342013	287.852638	693.797547	-56.128171	268.020052	684.283312	-169.086043	249.297184	585.186222	-21.873708	261.487504	498.240575	-35.879435	230.376942	417.391450	-37.155124	288.209507	498.290356	-63.043105	209.882287	319.292585	-51.185867	229.137978	331.542323	-133.413024	158.020803	296.869092	-98.566532	398.580748	264.353547	-78.775227	311.495270	243.823445	-21.347015	116.399743	958.799406	-416.107696	194.543666	923.407052	-402.573008	214.906265	950.159724	-388.118628	247.424646	852.183410	-404.301005	315.631869	767.055614	-394.533436	319.853420	749.707041	-270.868952	7.965379	534.916599	-383.281062	22.519075	529.158771	-302.124654	-53.211857	543.976026	-334.682661	45.368368	394.406837	-394.585011	210.521330	699.098371	-424.435211	163.993102	626.601136	-404.417706	83.801142	587.651475	-398.850976	184.945454	609.477807	-377.536417	123.438435	358.617125	-337.882675	-204.252928	834.071922	-223.839559	-78.279634	81.747613	-423.657575	-102.679119	80.407286	-24.381541	
254	1.2700	473.437055	1247.850989	63.670216	551.711949	1293.955759	-248.107604	494.206024	1321.846400	-103.232474	485.705754	1179.450691	-112.706204	432.965344	975.912854	42.705008	635.856529	894.687742	-5.732886	541.751169	1061.940752	-412.905300	666.994499	884.540862	-378.726733	-29.486982	1149.932255	-190.818627	142.359341	1166.096321	-338.925390	153.338175	1138.008767	-53.233366	147.434568	1080.633866	-318.960824	143.677706	1044.376222	-67.316925	19.893290	1195.579248	-131.963118	25.915100	1216.762369	-242.092087	42.907816	1033.467019	-14.992728	26.200542	1053.046873	-396.484736	119.159972	908.009044	-0.979199	187.975434	854.066788	-20.303977	217.715775	774.928454	-32.996594	215.289925	878.123110	-28.012958	287.279112	692.040461	-55.785966	267.916353	682.649841	-168.671414	248.547774	583.440187	-21.588961	260.786570	496.565847	-35.518103	229.598644	415.702741	-36.993541	287.495808	496.598260	-62.618552	209.531554	317.550403	-51.131783	228.491557	329.904707	-133.239065	157.470210	295.507252	-98.655163	397.705432	261.199245	-78.824038	310.438413	241.324547	-21.432959	118.798831	959.283525	-416.265334	197.032103	924.165863	-402.776617	217.306095	950.877197	-388.299666	250.102742	853.000254	-404.323411	318.522708	768.035683	-394.540384	318.451328	749.489613	-272.612441	9.822754	537.405351	-383.219715	24.306482	531.661794	-302.004819	-51.558332	546.544693	-334.571922	46.800563	396.846989	-394.526802	213.438194	700.380134	-424.476707	166.464311	628.232240	-404.337151	85.974284	589.775460	-398.808181	187.214719	611.208160	-377.580154	124.688267	360.751222	-337.801425	-204.222508	834.070739	-223.894329	-78.286464	81.748273	-423.655081	-102.672667	80.409221	-24.376159	
255	1.2750	475.764984	1247.329533	64.201660	553.066473	1294.193963	-248.127327	496.244628	1321.838473	-102.898128	487.438877	1179.678642	-112.589215	433.425760	975.526907	43.277173	636.075718	894.273545	-6.077981	542.561005	1062.159118	-412.547460	667.180282	884.597413	-378.655368	-27.533973	1149.807340	-190.803188	144.337177	1166.590947	-338.813015	154.991125	1137.955759	-52.830479	149.655075	1081.017161	-318.879948	145.353750	1044.339921	-67.352160	21.648855	1195.316023	-131.629972	27.755808	1216.849309	-241.746187	44.513057	1033.015662	-15.208715	28.556332	1053.470803	-396.529254	120.019265	907.336345	-0.983714	188.481514	852.914110	-20.126178	217.655359	773.509640	-32.782674	215.982474	876.745481	-27.677349	286.616423	690.289955	-55.346460	267.766344	680.845549	-168.279004	247.666192	581.724876	-21.314567	260.046032	494.730773	-35.289174	228.834297	413.974335	-36.768253	286.795292	494.721490	-62.197065	209.022108	315.900466	-51.055398	228.054234	328.048246	-133.134077	156.872521	294.308482	-98.806675	396.846244	258.166041	-78.798952	309.471053	238.870569	-21.415028	121.309628	959.765093	-416.433605	199.582917	924.881619	-402.891242	219.840607	951.658125	-388.482893	252.861601	853.845369	-404.467816	321.468125	768.952351	-394.465262	320.470473	750.169447	-272.760891	11.742382	539.932900	-383.205406	27.067225	534.437537	-301.689043	-49.799878	549.213374	-334.622875	48.294027	399.325947	-394.430212	216.327962	701.757421	-424.372508	168.884770	629.991540	-404.231422	88.222980	591.883980	-398.768332	189.577584	612.676328	-377.352512	126.003346	362.967120	-337.720164	-204.232539	834.074839	-223.925879	-78.270418	81.752337	-423.646610	-102.676085	80.410619	-24.389289	
